<svg width="256" height="256" viewBox="0 0 256 256" fill="none" xmlns="http://www.w3.org/2000/svg">
<rect x="10" y="10" width="236" height="236" rx="81" fill="url(#paint0_linear)" fill-opacity="0.7"/>
<rect x="10" y="10" width="236" height="236" rx="81" fill="url(#paint1_linear)" fill-opacity="0.4"/>
<rect x="56" y="56" width="40" height="40" rx="9" fill="black" fill-opacity="0.3"/>
<rect x="107" y="56" width="42" height="40" rx="9" fill="black" fill-opacity="0.3"/>
<rect x="56" y="107" width="40" height="42" rx="9" fill="black" fill-opacity="0.3"/>
<rect x="107" y="107" width="42" height="42" rx="9" fill="black" fill-opacity="0.3"/>
<rect x="56" y="160" width="40" height="40" rx="9" fill="black" fill-opacity="0.3"/>
<rect x="107" y="160" width="42" height="40" rx="9" fill="black" fill-opacity="0.3"/>
<rect x="160" y="56" width="40" height="40" rx="9" fill="black" fill-opacity="0.3"/>
<rect x="160" y="107" width="40" height="42" rx="9" fill="black" fill-opacity="0.3"/>
<rect x="160" y="160" width="40" height="40" rx="9" fill="black" fill-opacity="0.3"/>
<defs>
<linearGradient id="paint0_linear" x1="128" y1="10" x2="128" y2="246" gradientUnits="userSpaceOnUse">
<stop stop-color="#515B70"/>
<stop offset="1" stop-color="#B2C6EE"/>
</linearGradient>
<linearGradient id="paint1_linear" x1="246" y1="128" x2="10" y2="128" gradientUnits="userSpaceOnUse">
<stop stop-color="#FFA9A9"/>
<stop offset="1" stop-color="#C3FFB9"/>
</linearGradient>
</defs>
</svg>
